<svg width="583.291015625px" height="128px" xmlns="http://www.w3.org/2000/svg"
     viewBox="-41.6455078125 11 583.291015625 128" style="background: rgba(0, 0, 0, 0);" preserveAspectRatio="xMidYMid">
  <g filter="url(#editing-hole)">
    <g transform="translate(44.10004413127899, 105.02000045776367)">
      <path
        d="M3.06-26.56L3.06-26.56L3.06-26.56Q2.88-27.81 2.45-28.50L2.45-28.50L2.45-28.50Q2.03-29.19 1.03-29.19L1.03-29.19L1.03-29.19Q0.50-29.19 0.11-29L0.11-29L0.11-29Q-0.28-28.81-0.72-28.47L-0.72-28.47L-1.34-29.25L-1.34-29.25Q-0.63-29.84 0.27-30.42L0.27-30.42L0.27-30.42Q1.16-31 2.19-31.44L2.19-31.44L2.19-31.44Q3.22-31.88 4.41-32.16L4.41-32.16L4.41-32.16Q5.59-32.44 6.91-32.44L6.91-32.44L6.91-32.44Q8.78-32.44 9.94-31.80L9.94-31.80L9.94-31.80Q11.09-31.16 11.77-30.20L11.77-30.20L11.77-30.20Q12.44-29.25 12.72-28.16L12.72-28.16L12.72-28.16Q13-27.06 13.13-26.19L13.13-26.19L13.13-26.19Q14.28-16.72 15.72-11.84L15.72-11.84L15.72-11.84Q17.16-6.97 19.13-6.97L19.13-6.97L19.13-6.97Q20.22-6.97 21.23-8.16L21.23-8.16L21.23-8.16Q22.25-9.34 23.02-11.41L23.02-11.41L23.02-11.41Q23.78-13.47 24.25-16.22L24.25-16.22L24.25-16.22Q24.72-18.97 24.72-22.09L24.72-22.09L24.72-22.09Q24.72-24.16 24.44-25.58L24.44-25.58L24.44-25.58Q24.16-27 23.81-27.97L23.81-27.97L23.81-27.97Q23.47-28.94 23.19-29.58L23.19-29.58L23.19-29.58Q22.91-30.22 22.91-30.72L22.91-30.72L22.91-30.72Q22.91-31.19 23.28-31.50L23.28-31.50L23.28-31.50Q23.66-31.81 24.17-32.03L24.17-32.03L24.17-32.03Q24.69-32.25 25.23-32.34L25.23-32.34L25.23-32.34Q25.78-32.44 26.13-32.44L26.13-32.44L26.13-32.44Q27.03-32.44 27.44-32.19L27.44-32.19L27.44-32.19Q27.84-31.94 28.09-31.22L28.09-31.22L28.09-31.22Q28.38-30.31 28.48-28.83L28.48-28.83L28.48-28.83Q28.59-27.34 28.59-25.66L28.59-25.66L28.59-25.66Q28.59-23.25 28.27-20.38L28.27-20.38L28.27-20.38Q27.94-17.50 27.27-14.59L27.27-14.59L27.27-14.59Q26.59-11.69 25.56-8.97L25.56-8.97L25.56-8.97Q24.53-6.25 23.11-4.14L23.11-4.14L23.11-4.14Q21.69-2.03 19.89-0.77L19.89-0.77L19.89-0.77Q18.09 0.50 15.88 0.50L15.88 0.50L15.88 0.50Q13.28 0.50 11.38-1L11.38-1L11.38-1Q9.47-2.50 8.14-4.91L8.14-4.91L8.14-4.91Q6.81-7.31 5.94-10.31L5.94-10.31L5.94-10.31Q5.06-13.31 4.52-16.33L4.52-16.33L4.52-16.33Q3.97-19.34 3.64-22.05L3.64-22.05L3.64-22.05Q3.31-24.75 3.06-26.56ZM47.88-8.56L47.88-16.19L47.88-16.19Q47.88-16.97 47.38-17.38L47.38-17.38L47.38-17.38Q46.88-17.78 46.09-17.78L46.09-17.78L46.09-17.78Q45-17.78 44.02-17.28L44.02-17.28L44.02-17.28Q43.03-16.78 42.28-15.81L42.28-15.81L42.28-15.81Q41.53-14.84 41.09-13.42L41.09-13.42L41.09-13.42Q40.66-12 40.66-10.13L40.66-10.13L40.66-10.13Q40.66-8.31 40.92-7.13L40.92-7.13L40.92-7.13Q41.19-5.94 41.64-5.23L41.64-5.23L41.64-5.23Q42.09-4.53 42.69-4.25L42.69-4.25L42.69-4.25Q43.28-3.97 43.94-3.97L43.94-3.97L43.94-3.97Q44.75-3.97 45.47-4.39L45.47-4.39L45.47-4.39Q46.19-4.81 46.72-5.47L46.72-5.47L46.72-5.47Q47.25-6.13 47.56-6.94L47.56-6.94L47.56-6.94Q47.88-7.75 47.88-8.56L47.88-8.56ZM42.91-29.88L42.91-29.88L42.91-29.88Q41.84-29.88 40.94-29.63L40.94-29.63L40.94-29.63Q40.03-29.38 39.38-29L39.38-29L39.38-29Q38.72-28.63 38.34-28.17L38.34-28.17L38.34-28.17Q37.97-27.72 37.97-27.31L37.97-27.31L37.97-27.31Q37.97-26.84 38.45-26.64L38.45-26.64L38.45-26.64Q38.94-26.44 39.53-26.17L39.53-26.17L39.53-26.17Q40.13-25.91 40.61-25.42L40.61-25.42L40.61-25.42Q41.09-24.94 41.09-23.94L41.09-23.94L41.09-23.94Q41.09-23.28 40.83-22.73L40.83-22.73L40.83-22.73Q40.56-22.19 40.11-21.77L40.11-21.77L40.11-21.77Q39.66-21.34 39.05-21.11L39.05-21.11L39.05-21.11Q38.44-20.88 37.78-20.88L37.78-20.88L37.78-20.88Q36.03-20.88 34.95-22.06L34.95-22.06L34.95-22.06Q33.88-23.25 33.88-25.22L33.88-25.22L33.88-25.22Q33.88-27.13 34.88-28.48L34.88-28.48L34.88-28.48Q35.88-29.84 37.48-30.72L37.48-30.72L37.48-30.72Q39.09-31.59 41.13-32.02L41.13-32.02L41.13-32.02Q43.16-32.44 45.19-32.44L45.19-32.44L45.19-32.44Q47.63-32.44 49.84-31.91L49.84-31.91L49.84-31.91Q52.06-31.38 53.77-30.22L53.77-30.22L53.77-30.22Q55.47-29.06 56.48-27.28L56.48-27.28L56.48-27.28Q57.50-25.50 57.50-22.97L57.50-22.97L57.50-5.31L57.50-5.31Q57.50-5.03 57.53-4.69L57.53-4.69L57.53-4.69Q57.56-4.34 57.69-4.06L57.69-4.06L57.69-4.06Q57.81-3.78 58.06-3.59L58.06-3.59L58.06-3.59Q58.31-3.41 58.78-3.41L58.78-3.41L58.78-3.41Q59.34-3.41 59.83-3.83L59.83-3.83L59.83-3.83Q60.31-4.25 60.69-4.69L60.69-4.69L61.47-4.03L61.47-4.03Q61-3.38 60.34-2.59L60.34-2.59L60.34-2.59Q59.69-1.81 58.75-1.13L58.75-1.13L58.75-1.13Q57.81-0.44 56.56 0.03L56.56 0.03L56.56 0.03Q55.31 0.50 53.72 0.50L53.72 0.50L53.72 0.50Q51.75 0.50 50.22-0.67L50.22-0.67L50.22-0.67Q48.69-1.84 48.22-4.28L48.22-4.28L48.22-4.28Q47.22-2.94 46.14-2.03L46.14-2.03L46.14-2.03Q45.06-1.13 43.94-0.56L43.94-0.56L43.94-0.56Q42.81 0 41.67 0.25L41.67 0.25L41.67 0.25Q40.53 0.50 39.38 0.50L39.38 0.50L39.38 0.50Q37.88 0.50 36.47 0.03L36.47 0.03L36.47 0.03Q35.06-0.44 33.95-1.45L33.95-1.45L33.95-1.45Q32.84-2.47 32.17-4.09L32.17-4.09L32.17-4.09Q31.50-5.72 31.50-8.06L31.50-8.06L31.50-8.06Q31.50-10.91 32.63-12.72L32.63-12.72L32.63-12.72Q33.75-14.53 35.58-15.77L35.58-15.77L35.58-15.77Q37.41-17 39.73-17.88L39.73-17.88L39.73-17.88Q42.06-18.75 44.50-19.72L44.50-19.72L44.50-19.72Q46.31-20.44 47.14-21.86L47.14-21.86L47.14-21.86Q47.97-23.28 47.97-24.78L47.97-24.78L47.97-24.78Q47.97-27.09 46.61-28.48L46.61-28.48L46.61-28.48Q45.25-29.88 42.91-29.88ZM64.91-7.81L77.56-27.19L77.56-27.19Q77.88-27.59 78.11-28.06L78.11-28.06L78.11-28.06Q78.34-28.53 78.34-28.94L78.34-28.94L78.34-28.94Q78.34-29.53 77.41-29.78L77.41-29.78L77.41-29.78Q76.47-30.03 73.94-30.03L73.94-30.03L73.94-30.03Q72.38-30.03 71.34-29.66L71.34-29.66L71.34-29.66Q70.31-29.28 69.64-28.73L69.64-28.73L69.64-28.73Q68.97-28.19 68.55-27.53L68.55-27.53L68.55-27.53Q68.13-26.88 67.81-26.33L67.81-26.33L67.81-26.33Q67.50-25.78 67.20-25.41L67.20-25.41L67.20-25.41Q66.91-25.03 66.44-25.03L66.44-25.03L66.44-25.03Q65.91-25.03 65.52-25.38L65.52-25.38L65.52-25.38Q65.13-25.72 64.88-26.23L64.88-26.23L64.88-26.23Q64.63-26.75 64.50-27.36L64.50-27.36L64.50-27.36Q64.38-27.97 64.38-28.53L64.38-28.53L64.38-28.53Q64.38-29.38 65.09-30.09L65.09-30.09L65.09-30.09Q65.81-30.81 67.19-31.33L67.19-31.33L67.19-31.33Q68.56-31.84 70.55-32.14L70.55-32.14L70.55-32.14Q72.53-32.44 75.09-32.44L75.09-32.44L75.09-32.44Q79.25-32.44 81.86-32.09L81.86-32.09L81.86-32.09Q84.47-31.75 85.94-31.17L85.94-31.17L85.94-31.17Q87.41-30.59 87.94-29.78L87.94-29.78L87.94-29.78Q88.47-28.97 88.47-28.03L88.47-28.03L88.47-28.03Q88.47-27.53 88.23-26.92L88.23-26.92L88.23-26.92Q88-26.31 87.67-25.75L87.67-25.75L87.67-25.75Q87.34-25.19 87.02-24.70L87.02-24.70L87.02-24.70Q86.69-24.22 86.53-24L86.53-24L73.53-4.09L73.53-4.09Q73.44-3.94 73.23-3.61L73.23-3.61L73.23-3.61Q73.03-3.28 73.03-2.88L73.03-2.88L73.03-2.88Q73.03-2.63 73.20-2.44L73.20-2.44L73.20-2.44Q73.38-2.25 73.86-2.13L73.86-2.13L73.86-2.13Q74.34-2 75.25-1.95L75.25-1.95L75.25-1.95Q76.16-1.91 77.63-1.91L77.63-1.91L77.63-1.91Q79.50-1.91 80.73-2.31L80.73-2.31L80.73-2.31Q81.97-2.72 82.75-3.34L82.75-3.34L82.75-3.34Q83.53-3.97 84-4.67L84-4.67L84-4.67Q84.47-5.38 84.81-6L84.81-6L84.81-6Q85.16-6.63 85.48-7.03L85.48-7.03L85.48-7.03Q85.81-7.44 86.34-7.44L86.34-7.44L86.34-7.44Q86.88-7.44 87.28-7.05L87.28-7.05L87.28-7.05Q87.69-6.66 87.97-6.06L87.97-6.06L87.97-6.06Q88.25-5.47 88.39-4.78L88.39-4.78L88.39-4.78Q88.53-4.09 88.53-3.53L88.53-3.53L88.53-3.53Q88.53-2.69 87.78-1.95L87.78-1.95L87.78-1.95Q87.03-1.22 85.50-0.67L85.50-0.67L85.50-0.67Q83.97-0.13 81.61 0.19L81.61 0.19L81.61 0.19Q79.25 0.50 76.03 0.50L76.03 0.50L76.03 0.50Q72.56 0.50 70.13 0.22L70.13 0.22L70.13 0.22Q67.69-0.06 66.16-0.61L66.16-0.61L66.16-0.61Q64.63-1.16 63.94-2L63.94-2L63.94-2Q63.25-2.84 63.25-3.97L63.25-3.97L63.25-3.97Q63.25-4.88 63.67-5.77L63.67-5.77L63.67-5.77Q64.09-6.66 64.91-7.81L64.91-7.81ZM103.28-43.47L103.28-26.50L103.28-26.50Q104.44-28.16 105.91-29.47L105.91-29.47L105.91-29.47Q106.50-30.03 107.23-30.56L107.23-30.56L107.23-30.56Q107.97-31.09 108.80-31.52L108.80-31.52L108.80-31.52Q109.63-31.94 110.55-32.19L110.55-32.19L110.55-32.19Q111.47-32.44 112.44-32.44L112.44-32.44L112.44-32.44Q114.53-32.44 116.19-31.63L116.19-31.63L116.19-31.63Q117.84-30.81 118.97-28.91L118.97-28.91L118.97-28.91Q120.09-27 120.69-23.86L120.69-23.86L120.69-23.86Q121.28-20.72 121.28-16.06L121.28-16.06L121.28-16.06Q121.28-11.53 120.47-8.19L120.47-8.19L120.47-8.19Q119.66-4.84 118.34-2.50L118.34-2.50L118.34-2.50Q117.03-0.16 115.38 1.33L115.38 1.33L115.38 1.33Q113.72 2.81 112.03 3.66L112.03 3.66L112.03 3.66Q110.34 4.50 108.78 4.83L108.78 4.83L108.78 4.83Q107.22 5.16 106.09 5.19L106.09 5.19L105.78 3.91L105.78 3.91Q107.19 3.56 108.28 2.63L108.28 2.63L108.28 2.63Q109.38 1.69 110.13-0.45L110.13-0.45L110.13-0.45Q110.88-2.59 111.27-6.22L111.27-6.22L111.27-6.22Q111.66-9.84 111.66-15.56L111.66-15.56L111.66-15.56Q111.66-19.50 111.30-21.86L111.30-21.86L111.30-21.86Q110.94-24.22 110.36-25.45L110.36-25.45L110.36-25.45Q109.78-26.69 109.05-27.08L109.05-27.08L109.05-27.08Q108.31-27.47 107.56-27.47L107.56-27.47L107.56-27.47Q106.66-27.47 105.97-26.98L105.97-26.98L105.97-26.98Q105.28-26.50 104.77-25.88L104.77-25.88L104.77-25.88Q104.25-25.25 103.89-24.63L103.89-24.63L103.89-24.63Q103.53-24 103.28-23.69L103.28-23.69L103.28-2.81L103.28-2.81Q103.28-2.41 103.16-1.83L103.16-1.83L103.16-1.83Q103.03-1.25 102.55-0.73L102.55-0.73L102.55-0.73Q102.06-0.22 101.11 0.14L101.11 0.14L101.11 0.14Q100.16 0.50 98.50 0.50L98.50 0.50L98.50 0.50Q96.84 0.50 95.88 0.11L95.88 0.11L95.88 0.11Q94.91-0.28 94.42-0.81L94.42-0.81L94.42-0.81Q93.94-1.34 93.81-1.91L93.81-1.91L93.81-1.91Q93.69-2.47 93.69-2.81L93.69-2.81L93.69-43.13L93.69-43.13Q93.69-44.03 93.27-44.70L93.27-44.70L93.27-44.70Q92.84-45.38 91.84-45.38L91.84-45.38L91.84-45.38Q91.31-45.38 90.92-45.20L90.92-45.20L90.92-45.20Q90.53-45.03 90.09-44.69L90.09-44.69L89.47-45.44L89.47-45.44Q90.19-46.03 91.06-46.61L91.06-46.61L91.06-46.61Q91.94-47.19 92.98-47.63L92.98-47.63L92.98-47.63Q94.03-48.06 95.22-48.34L95.22-48.34L95.22-48.34Q96.41-48.63 97.72-48.63L97.72-48.63L97.72-48.63Q99.75-48.63 100.88-48.08L100.88-48.08L100.88-48.08Q102-47.53 102.53-46.73L102.53-46.73L102.53-46.73Q103.06-45.94 103.17-45.05L103.17-45.05L103.17-45.05Q103.28-44.16 103.28-43.47L103.28-43.47ZM141.81-8.56L141.81-16.19L141.81-16.19Q141.81-16.97 141.31-17.38L141.31-17.38L141.31-17.38Q140.81-17.78 140.03-17.78L140.03-17.78L140.03-17.78Q138.94-17.78 137.95-17.28L137.95-17.28L137.95-17.28Q136.97-16.78 136.22-15.81L136.22-15.81L136.22-15.81Q135.47-14.84 135.03-13.42L135.03-13.42L135.03-13.42Q134.59-12 134.59-10.13L134.59-10.13L134.59-10.13Q134.59-8.31 134.86-7.13L134.86-7.13L134.86-7.13Q135.13-5.94 135.58-5.23L135.58-5.23L135.58-5.23Q136.03-4.53 136.63-4.25L136.63-4.25L136.63-4.25Q137.22-3.97 137.88-3.97L137.88-3.97L137.88-3.97Q138.69-3.97 139.41-4.39L139.41-4.39L139.41-4.39Q140.13-4.81 140.66-5.47L140.66-5.47L140.66-5.47Q141.19-6.13 141.50-6.94L141.50-6.94L141.50-6.94Q141.81-7.75 141.81-8.56L141.81-8.56ZM136.84-29.88L136.84-29.88L136.84-29.88Q135.78-29.88 134.88-29.63L134.88-29.63L134.88-29.63Q133.97-29.38 133.31-29L133.31-29L133.31-29Q132.66-28.63 132.28-28.17L132.28-28.17L132.28-28.17Q131.91-27.72 131.91-27.31L131.91-27.31L131.91-27.31Q131.91-26.84 132.39-26.64L132.39-26.64L132.39-26.64Q132.88-26.44 133.47-26.17L133.47-26.17L133.47-26.17Q134.06-25.91 134.55-25.42L134.55-25.42L134.55-25.42Q135.03-24.94 135.03-23.94L135.03-23.94L135.03-23.94Q135.03-23.28 134.77-22.73L134.77-22.73L134.77-22.73Q134.50-22.19 134.05-21.77L134.05-21.77L134.05-21.77Q133.59-21.34 132.98-21.11L132.98-21.11L132.98-21.11Q132.38-20.88 131.72-20.88L131.72-20.88L131.72-20.88Q129.97-20.88 128.89-22.06L128.89-22.06L128.89-22.06Q127.81-23.25 127.81-25.22L127.81-25.22L127.81-25.22Q127.81-27.13 128.81-28.48L128.81-28.48L128.81-28.48Q129.81-29.84 131.42-30.72L131.42-30.72L131.42-30.72Q133.03-31.59 135.06-32.02L135.06-32.02L135.06-32.02Q137.09-32.44 139.13-32.44L139.13-32.44L139.13-32.44Q141.56-32.44 143.78-31.91L143.78-31.91L143.78-31.91Q146-31.38 147.70-30.22L147.70-30.22L147.70-30.22Q149.41-29.06 150.42-27.28L150.42-27.28L150.42-27.28Q151.44-25.50 151.44-22.97L151.44-22.97L151.44-5.31L151.44-5.31Q151.44-5.03 151.47-4.69L151.47-4.69L151.47-4.69Q151.50-4.34 151.63-4.06L151.63-4.06L151.63-4.06Q151.75-3.78 152-3.59L152-3.59L152-3.59Q152.25-3.41 152.72-3.41L152.72-3.41L152.72-3.41Q153.28-3.41 153.77-3.83L153.77-3.83L153.77-3.83Q154.25-4.25 154.63-4.69L154.63-4.69L155.41-4.03L155.41-4.03Q154.94-3.38 154.28-2.59L154.28-2.59L154.28-2.59Q153.63-1.81 152.69-1.13L152.69-1.13L152.69-1.13Q151.75-0.44 150.50 0.03L150.50 0.03L150.50 0.03Q149.25 0.50 147.66 0.50L147.66 0.50L147.66 0.50Q145.69 0.50 144.16-0.67L144.16-0.67L144.16-0.67Q142.63-1.84 142.16-4.28L142.16-4.28L142.16-4.28Q141.16-2.94 140.08-2.03L140.08-2.03L140.08-2.03Q139-1.13 137.88-0.56L137.88-0.56L137.88-0.56Q136.75 0 135.61 0.25L135.61 0.25L135.61 0.25Q134.47 0.50 133.31 0.50L133.31 0.50L133.31 0.50Q131.81 0.50 130.41 0.03L130.41 0.03L130.41 0.03Q129-0.44 127.89-1.45L127.89-1.45L127.89-1.45Q126.78-2.47 126.11-4.09L126.11-4.09L126.11-4.09Q125.44-5.72 125.44-8.06L125.44-8.06L125.44-8.06Q125.44-10.91 126.56-12.72L126.56-12.72L126.56-12.72Q127.69-14.53 129.52-15.77L129.52-15.77L129.52-15.77Q131.34-17 133.67-17.88L133.67-17.88L133.67-17.88Q136-18.75 138.44-19.72L138.44-19.72L138.44-19.72Q140.25-20.44 141.08-21.86L141.08-21.86L141.08-21.86Q141.91-23.28 141.91-24.78L141.91-24.78L141.91-24.78Q141.91-27.09 140.55-28.48L140.55-28.48L140.55-28.48Q139.19-29.88 136.84-29.88ZM183.69-43.47L183.69-23.94L183.69-23.94Q184.78-25.41 186.03-26.92L186.03-26.92L186.03-26.92Q187.28-28.44 188.72-29.66L188.72-29.66L188.72-29.66Q190.16-30.88 191.84-31.66L191.84-31.66L191.84-31.66Q193.53-32.44 195.53-32.44L195.53-32.44L195.53-32.44Q197.31-32.44 198.50-31.73L198.50-31.73L198.50-31.73Q199.69-31.03 200.42-30.05L200.42-30.05L200.42-30.05Q201.16-29.06 201.45-28L201.45-28L201.45-28Q201.75-26.94 201.75-26.19L201.75-26.19L201.75-26.19Q201.75-24.81 201.39-23.33L201.39-23.33L201.39-23.33Q201.03-21.84 200.17-20.39L200.17-20.39L200.17-20.39Q199.31-18.94 197.88-17.58L197.88-17.58L197.88-17.58Q196.44-16.22 194.25-15.09L194.25-15.09L194.25-15.09Q197.19-8.88 199.97-4.39L199.97-4.39L199.97-4.39Q202.75 0.09 205.33 2.98L205.33 2.98L205.33 2.98Q207.91 5.88 210.28 7.25L210.28 7.25L210.28 7.25Q212.66 8.63 214.81 8.63L214.81 8.63L214.81 8.63Q215.19 8.63 215.56 8.53L215.56 8.53L215.56 8.53Q215.94 8.44 216.25 8.31L216.25 8.31L216.25 8.31Q216.59 8.19 216.97 8L216.97 8L217.56 9.09L217.56 9.09Q216.72 9.56 215.84 9.98L215.84 9.98L215.84 9.98Q214.97 10.41 213.84 10.72L213.84 10.72L213.84 10.72Q212.72 11.03 211.25 11.22L211.25 11.22L211.25 11.22Q209.78 11.41 207.75 11.41L207.75 11.41L207.75 11.41Q205.91 11.41 204.11 10.97L204.11 10.97L204.11 10.97Q202.31 10.53 200.50 9.41L200.50 9.41L200.50 9.41Q198.69 8.28 196.83 6.41L196.83 6.41L196.83 6.41Q194.97 4.53 193.02 1.66L193.02 1.66L193.02 1.66Q191.06-1.22 189-5.19L189-5.19L189-5.19Q186.94-9.16 184.72-14.47L184.72-14.47L184.72-14.47Q187.72-16.69 189.44-18.58L189.44-18.58L189.44-18.58Q191.16-20.47 192.03-22L192.03-22L192.03-22Q192.91-23.53 193.13-24.72L193.13-24.72L193.13-24.72Q193.34-25.91 193.34-26.75L193.34-26.75L193.34-26.75Q193.34-26.88 193.31-27.17L193.31-27.17L193.31-27.17Q193.28-27.47 193.11-27.75L193.11-27.75L193.11-27.75Q192.94-28.03 192.61-28.25L192.61-28.25L192.61-28.25Q192.28-28.47 191.69-28.47L191.69-28.47L191.69-28.47Q190.53-28.47 189.34-27.48L189.34-27.48L189.34-27.48Q188.16-26.50 187.08-25.05L187.08-25.05L187.08-25.05Q186-23.59 185.13-21.92L185.13-21.92L185.13-21.92Q184.25-20.25 183.69-18.88L183.69-18.88L183.69-2.75L183.69-2.75Q183.69-2.34 183.55-1.78L183.55-1.78L183.55-1.78Q183.41-1.22 182.89-0.72L182.89-0.72L182.89-0.72Q182.38-0.22 181.39 0.14L181.39 0.14L181.39 0.14Q180.41 0.50 178.75 0.50L178.75 0.50L178.75 0.50Q177.09 0.50 176.16 0.11L176.16 0.11L176.16 0.11Q175.22-0.28 174.77-0.81L174.77-0.81L174.77-0.81Q174.31-1.34 174.20-1.91L174.20-1.91L174.20-1.91Q174.09-2.47 174.09-2.81L174.09-2.81L174.09-43.13L174.09-43.13Q174.09-44.03 173.67-44.70L173.67-44.70L173.67-44.70Q173.25-45.38 172.25-45.38L172.25-45.38L172.25-45.38Q171.72-45.38 171.33-45.20L171.33-45.20L171.33-45.20Q170.94-45.03 170.50-44.69L170.50-44.69L169.88-45.44L169.88-45.44Q170.59-46.03 171.47-46.61L171.47-46.61L171.47-46.61Q172.34-47.19 173.39-47.63L173.39-47.63L173.39-47.63Q174.44-48.06 175.63-48.34L175.63-48.34L175.63-48.34Q176.81-48.63 178.13-48.63L178.13-48.63L178.13-48.63Q180.16-48.63 181.28-48.08L181.28-48.08L181.28-48.08Q182.41-47.53 182.94-46.73L182.94-46.73L182.94-46.73Q183.47-45.94 183.58-45.05L183.58-45.05L183.58-45.05Q183.69-44.16 183.69-43.47L183.69-43.47ZM217.97-27.25L217.97-2.81L217.97-2.81Q217.97-2.41 217.83-1.83L217.83-1.83L217.83-1.83Q217.69-1.25 217.17-0.73L217.17-0.73L217.17-0.73Q216.66-0.22 215.69 0.14L215.69 0.14L215.69 0.14Q214.72 0.50 213.06 0.50L213.06 0.50L213.06 0.50Q211.41 0.50 210.47 0.11L210.47 0.11L210.47 0.11Q209.53-0.28 209.06-0.81L209.06-0.81L209.06-0.81Q208.59-1.34 208.48-1.91L208.48-1.91L208.48-1.91Q208.38-2.47 208.38-2.81L208.38-2.81L208.38-26.94L208.38-26.94Q208.38-27.84 207.95-28.52L207.95-28.52L207.95-28.52Q207.53-29.19 206.53-29.19L206.53-29.19L206.53-29.19Q206-29.19 205.63-29L205.63-29L205.63-29Q205.25-28.81 204.81-28.47L204.81-28.47L204.16-29.25L204.16-29.25Q204.88-29.84 205.77-30.42L205.77-30.42L205.77-30.42Q206.66-31 207.69-31.44L207.69-31.44L207.69-31.44Q208.72-31.88 209.91-32.16L209.91-32.16L209.91-32.16Q211.09-32.44 212.41-32.44L212.41-32.44L212.41-32.44Q214.44-32.44 215.56-31.89L215.56-31.89L215.56-31.89Q216.69-31.34 217.22-30.55L217.22-30.55L217.22-30.55Q217.75-29.75 217.86-28.84L217.86-28.84L217.86-28.84Q217.97-27.94 217.97-27.25L217.97-27.25ZM207.41-39.56L207.41-39.56L207.41-39.56Q207.41-40.44 207.80-41.23L207.80-41.23L207.80-41.23Q208.19-42.03 208.89-42.63L208.89-42.63L208.89-42.63Q209.59-43.22 210.52-43.56L210.52-43.56L210.52-43.56Q211.44-43.91 212.53-43.91L212.53-43.91L212.53-43.91Q213.59-43.91 214.52-43.56L214.52-43.56L214.52-43.56Q215.44-43.22 216.13-42.63L216.13-42.63L216.13-42.63Q216.81-42.03 217.20-41.23L217.20-41.23L217.20-41.23Q217.59-40.44 217.59-39.56L217.59-39.56L217.59-39.56Q217.59-38.66 217.20-37.88L217.20-37.88L217.20-37.88Q216.81-37.09 216.13-36.52L216.13-36.52L216.13-36.52Q215.44-35.94 214.52-35.59L214.52-35.59L214.52-35.59Q213.59-35.25 212.53-35.25L212.53-35.25L212.53-35.25Q211.44-35.25 210.52-35.59L210.52-35.59L210.52-35.59Q209.59-35.94 208.89-36.52L208.89-36.52L208.89-36.52Q208.19-37.09 207.80-37.88L207.80-37.88L207.80-37.88Q207.41-38.66 207.41-39.56ZM235.50-43.47L235.50-23.94L235.50-23.94Q236.59-25.41 237.84-26.92L237.84-26.92L237.84-26.92Q239.09-28.44 240.53-29.66L240.53-29.66L240.53-29.66Q241.97-30.88 243.66-31.66L243.66-31.66L243.66-31.66Q245.34-32.44 247.34-32.44L247.34-32.44L247.34-32.44Q249.13-32.44 250.31-31.73L250.31-31.73L250.31-31.73Q251.50-31.03 252.23-30.05L252.23-30.05L252.23-30.05Q252.97-29.06 253.27-28L253.27-28L253.27-28Q253.56-26.94 253.56-26.19L253.56-26.19L253.56-26.19Q253.56-24.81 253.20-23.33L253.20-23.33L253.20-23.33Q252.84-21.84 251.98-20.39L251.98-20.39L251.98-20.39Q251.13-18.94 249.69-17.58L249.69-17.58L249.69-17.58Q248.25-16.22 246.06-15.09L246.06-15.09L246.06-15.09Q249-8.88 251.78-4.39L251.78-4.39L251.78-4.39Q254.56 0.09 257.14 2.98L257.14 2.98L257.14 2.98Q259.72 5.88 262.09 7.25L262.09 7.25L262.09 7.25Q264.47 8.63 266.63 8.63L266.63 8.63L266.63 8.63Q267 8.63 267.38 8.53L267.38 8.53L267.38 8.53Q267.75 8.44 268.06 8.31L268.06 8.31L268.06 8.31Q268.41 8.19 268.78 8L268.78 8L269.38 9.09L269.38 9.09Q268.53 9.56 267.66 9.98L267.66 9.98L267.66 9.98Q266.78 10.41 265.66 10.72L265.66 10.72L265.66 10.72Q264.53 11.03 263.06 11.22L263.06 11.22L263.06 11.22Q261.59 11.41 259.56 11.41L259.56 11.41L259.56 11.41Q257.72 11.41 255.92 10.97L255.92 10.97L255.92 10.97Q254.13 10.53 252.31 9.41L252.31 9.41L252.31 9.41Q250.50 8.28 248.64 6.41L248.64 6.41L248.64 6.41Q246.78 4.53 244.83 1.66L244.83 1.66L244.83 1.66Q242.88-1.22 240.81-5.19L240.81-5.19L240.81-5.19Q238.75-9.16 236.53-14.47L236.53-14.47L236.53-14.47Q239.53-16.69 241.25-18.58L241.25-18.58L241.25-18.58Q242.97-20.47 243.84-22L243.84-22L243.84-22Q244.72-23.53 244.94-24.72L244.94-24.72L244.94-24.72Q245.16-25.91 245.16-26.75L245.16-26.75L245.16-26.75Q245.16-26.88 245.13-27.17L245.13-27.17L245.13-27.17Q245.09-27.47 244.92-27.75L244.92-27.75L244.92-27.75Q244.75-28.03 244.42-28.25L244.42-28.25L244.42-28.25Q244.09-28.47 243.50-28.47L243.50-28.47L243.50-28.47Q242.34-28.47 241.16-27.48L241.16-27.48L241.16-27.48Q239.97-26.50 238.89-25.05L238.89-25.05L238.89-25.05Q237.81-23.59 236.94-21.92L236.94-21.92L236.94-21.92Q236.06-20.25 235.50-18.88L235.50-18.88L235.50-2.75L235.50-2.75Q235.50-2.34 235.36-1.78L235.36-1.78L235.36-1.78Q235.22-1.22 234.70-0.72L234.70-0.72L234.70-0.72Q234.19-0.22 233.20 0.14L233.20 0.14L233.20 0.14Q232.22 0.50 230.56 0.50L230.56 0.50L230.56 0.50Q228.91 0.50 227.97 0.11L227.97 0.11L227.97 0.11Q227.03-0.28 226.58-0.81L226.58-0.81L226.58-0.81Q226.13-1.34 226.02-1.91L226.02-1.91L226.02-1.91Q225.91-2.47 225.91-2.81L225.91-2.81L225.91-43.13L225.91-43.13Q225.91-44.03 225.48-44.70L225.48-44.70L225.48-44.70Q225.06-45.38 224.06-45.38L224.06-45.38L224.06-45.38Q223.53-45.38 223.14-45.20L223.14-45.20L223.14-45.20Q222.75-45.03 222.31-44.69L222.31-44.69L221.69-45.44L221.69-45.44Q222.41-46.03 223.28-46.61L223.28-46.61L223.28-46.61Q224.16-47.19 225.20-47.63L225.20-47.63L225.20-47.63Q226.25-48.06 227.44-48.34L227.44-48.34L227.44-48.34Q228.63-48.63 229.94-48.63L229.94-48.63L229.94-48.63Q231.97-48.63 233.09-48.08L233.09-48.08L233.09-48.08Q234.22-47.53 234.75-46.73L234.75-46.73L234.75-46.73Q235.28-45.94 235.39-45.05L235.39-45.05L235.39-45.05Q235.50-44.16 235.50-43.47L235.50-43.47ZM278.19-15.56L278.19-15.56L278.19-15.56Q278.19-19.50 277.83-21.86L277.83-21.86L277.83-21.86Q277.47-24.22 276.88-25.45L276.88-25.45L276.88-25.45Q276.28-26.69 275.56-27.08L275.56-27.08L275.56-27.08Q274.84-27.47 274.09-27.47L274.09-27.47L274.09-27.47Q273.19-27.47 272.48-26.98L272.48-26.98L272.48-26.98Q271.78-26.50 271.27-25.88L271.27-25.88L271.27-25.88Q270.75-25.25 270.39-24.63L270.39-24.63L270.39-24.63Q270.03-24 269.78-23.69L269.78-23.69L269.78-2.81L269.78-2.81Q269.78-2.41 269.66-1.83L269.66-1.83L269.66-1.83Q269.53-1.25 269.05-0.73L269.05-0.73L269.05-0.73Q268.56-0.22 267.61 0.14L267.61 0.14L267.61 0.14Q266.66 0.50 265 0.50L265 0.50L265 0.50Q263.34 0.50 262.39 0.11L262.39 0.11L262.39 0.11Q261.44-0.28 260.94-0.81L260.94-0.81L260.94-0.81Q260.44-1.34 260.31-1.91L260.31-1.91L260.31-1.91Q260.19-2.47 260.19-2.81L260.19-2.81L260.19-26.94L260.19-26.94Q260.19-27.84 259.77-28.52L259.77-28.52L259.77-28.52Q259.34-29.19 258.34-29.19L258.34-29.19L258.34-29.19Q257.81-29.19 257.44-29L257.44-29L257.44-29Q257.06-28.81 256.63-28.47L256.63-28.47L255.97-29.25L255.97-29.25Q256.69-29.84 257.58-30.42L257.58-30.42L257.58-30.42Q258.47-31 259.50-31.44L259.50-31.44L259.50-31.44Q260.53-31.88 261.72-32.16L261.72-32.16L261.72-32.16Q262.91-32.44 264.22-32.44L264.22-32.44L264.22-32.44Q266.25-32.44 267.38-31.77L267.38-31.77L267.38-31.77Q268.50-31.09 269.03-30.16L269.03-30.16L269.03-30.16Q269.56-29.22 269.67-28.20L269.67-28.20L269.67-28.20Q269.78-27.19 269.78-26.50L269.78-26.50L269.78-26.50Q270.94-28.16 272.41-29.47L272.41-29.47L272.41-29.47Q273-30.03 273.73-30.56L273.73-30.56L273.73-30.56Q274.47-31.09 275.30-31.52L275.30-31.52L275.30-31.52Q276.13-31.94 277.05-32.19L277.05-32.19L277.05-32.19Q277.97-32.44 278.94-32.44L278.94-32.44L278.94-32.44Q281.06-32.44 282.70-31.63L282.70-31.63L282.70-31.63Q284.34-30.81 285.47-28.91L285.47-28.91L285.47-28.91Q286.59-27 287.19-23.86L287.19-23.86L287.19-23.86Q287.78-20.72 287.78-16.06L287.78-16.06L287.78-16.06Q287.78-11.53 286.97-8.19L286.97-8.19L286.97-8.19Q286.16-4.84 284.84-2.50L284.84-2.50L284.84-2.50Q283.53-0.16 281.88 1.33L281.88 1.33L281.88 1.33Q280.22 2.81 278.53 3.66L278.53 3.66L278.53 3.66Q276.84 4.50 275.30 4.83L275.30 4.83L275.30 4.83Q273.75 5.16 272.63 5.19L272.63 5.19L272.28 3.91L272.28 3.91Q273.22 3.69 274.02 3.22L274.02 3.22L274.02 3.22Q274.81 2.75 275.47 1.84L275.47 1.84L275.47 1.84Q276.13 0.94 276.63-0.45L276.63-0.45L276.63-0.45Q277.13-1.84 277.48-3.94L277.48-3.94L277.48-3.94Q277.84-6.03 278.02-8.89L278.02-8.89L278.02-8.89Q278.19-11.75 278.19-15.56ZM308.31-8.56L308.31-16.19L308.31-16.19Q308.31-16.97 307.81-17.38L307.81-17.38L307.81-17.38Q307.31-17.78 306.53-17.78L306.53-17.78L306.53-17.78Q305.44-17.78 304.45-17.28L304.45-17.28L304.45-17.28Q303.47-16.78 302.72-15.81L302.72-15.81L302.72-15.81Q301.97-14.84 301.53-13.42L301.53-13.42L301.53-13.42Q301.09-12 301.09-10.13L301.09-10.13L301.09-10.13Q301.09-8.31 301.36-7.13L301.36-7.13L301.36-7.13Q301.63-5.94 302.08-5.23L302.08-5.23L302.08-5.23Q302.53-4.53 303.13-4.25L303.13-4.25L303.13-4.25Q303.72-3.97 304.38-3.97L304.38-3.97L304.38-3.97Q305.19-3.97 305.91-4.39L305.91-4.39L305.91-4.39Q306.63-4.81 307.16-5.47L307.16-5.47L307.16-5.47Q307.69-6.13 308-6.94L308-6.94L308-6.94Q308.31-7.75 308.31-8.56L308.31-8.56ZM303.34-29.88L303.34-29.88L303.34-29.88Q302.28-29.88 301.38-29.63L301.38-29.63L301.38-29.63Q300.47-29.38 299.81-29L299.81-29L299.81-29Q299.16-28.63 298.78-28.17L298.78-28.17L298.78-28.17Q298.41-27.72 298.41-27.31L298.41-27.31L298.41-27.31Q298.41-26.84 298.89-26.64L298.89-26.64L298.89-26.64Q299.38-26.44 299.97-26.17L299.97-26.17L299.97-26.17Q300.56-25.91 301.05-25.42L301.05-25.42L301.05-25.42Q301.53-24.94 301.53-23.94L301.53-23.94L301.53-23.94Q301.53-23.28 301.27-22.73L301.27-22.73L301.27-22.73Q301-22.19 300.55-21.77L300.55-21.77L300.55-21.77Q300.09-21.34 299.48-21.11L299.48-21.11L299.48-21.11Q298.88-20.88 298.22-20.88L298.22-20.88L298.22-20.88Q296.47-20.88 295.39-22.06L295.39-22.06L295.39-22.06Q294.31-23.25 294.31-25.22L294.31-25.22L294.31-25.22Q294.31-27.13 295.31-28.48L295.31-28.48L295.31-28.48Q296.31-29.84 297.92-30.72L297.92-30.72L297.92-30.72Q299.53-31.59 301.56-32.02L301.56-32.02L301.56-32.02Q303.59-32.44 305.63-32.44L305.63-32.44L305.63-32.44Q308.06-32.44 310.28-31.91L310.28-31.91L310.28-31.91Q312.50-31.38 314.20-30.22L314.20-30.22L314.20-30.22Q315.91-29.06 316.92-27.28L316.92-27.28L316.92-27.28Q317.94-25.50 317.94-22.97L317.94-22.97L317.94-5.31L317.94-5.31Q317.94-5.03 317.97-4.69L317.97-4.69L317.97-4.69Q318-4.34 318.13-4.06L318.13-4.06L318.13-4.06Q318.25-3.78 318.50-3.59L318.50-3.59L318.50-3.59Q318.75-3.41 319.22-3.41L319.22-3.41L319.22-3.41Q319.78-3.41 320.27-3.83L320.27-3.83L320.27-3.83Q320.75-4.25 321.13-4.69L321.13-4.69L321.91-4.03L321.91-4.03Q321.44-3.38 320.78-2.59L320.78-2.59L320.78-2.59Q320.13-1.81 319.19-1.13L319.19-1.13L319.19-1.13Q318.25-0.44 317 0.03L317 0.03L317 0.03Q315.75 0.50 314.16 0.50L314.16 0.50L314.16 0.50Q312.19 0.50 310.66-0.67L310.66-0.67L310.66-0.67Q309.13-1.84 308.66-4.28L308.66-4.28L308.66-4.28Q307.66-2.94 306.58-2.03L306.58-2.03L306.58-2.03Q305.50-1.13 304.38-0.56L304.38-0.56L304.38-0.56Q303.25 0 302.11 0.25L302.11 0.25L302.11 0.25Q300.97 0.50 299.81 0.50L299.81 0.50L299.81 0.50Q298.31 0.50 296.91 0.03L296.91 0.03L296.91 0.03Q295.50-0.44 294.39-1.45L294.39-1.45L294.39-1.45Q293.28-2.47 292.61-4.09L292.61-4.09L292.61-4.09Q291.94-5.72 291.94-8.06L291.94-8.06L291.94-8.06Q291.94-10.91 293.06-12.72L293.06-12.72L293.06-12.72Q294.19-14.53 296.02-15.77L296.02-15.77L296.02-15.77Q297.84-17 300.17-17.88L300.17-17.88L300.17-17.88Q302.50-18.75 304.94-19.72L304.94-19.72L304.94-19.72Q306.75-20.44 307.58-21.86L307.58-21.86L307.58-21.86Q308.41-23.28 308.41-24.78L308.41-24.78L308.41-24.78Q308.41-27.09 307.05-28.48L307.05-28.48L307.05-28.48Q305.69-29.88 303.34-29.88ZM343.47-16.97L343.47-16.97L343.47-16.97Q343.47-17.31 343.47-18.36L343.47-18.36L343.47-18.36Q343.47-19.41 343.41-20.77L343.41-20.77L343.41-20.77Q343.34-22.13 343.19-23.66L343.19-23.66L343.19-23.66Q343.03-25.19 342.69-26.50L342.69-26.50L342.69-26.50Q341.94-27.47 341.02-28.23L341.02-28.23L341.02-28.23Q340.09-29 338.66-29L338.66-29L338.66-29Q336.22-29 335.08-25.81L335.08-25.81L335.08-25.81Q333.94-22.63 333.94-15.94L333.94-15.94L333.94-15.94Q333.94-13 334.20-10.56L334.20-10.56L334.20-10.56Q334.47-8.13 335.02-6.38L335.02-6.38L335.02-6.38Q335.56-4.63 336.42-3.66L336.42-3.66L336.42-3.66Q337.28-2.69 338.47-2.69L338.47-2.69L338.47-2.69Q343.47-2.69 343.47-16.97ZM343.09-30.72L343.09-30.72L343.09-30.72Q342.50-33.84 341.44-36.55L341.44-36.55L341.44-36.55Q340.38-39.25 338.89-41.22L338.89-41.22L338.89-41.22Q337.41-43.19 335.52-44.31L335.52-44.31L335.52-44.31Q333.63-45.44 331.44-45.44L331.44-45.44L331.44-45.44Q330.19-45.44 329.17-45.13L329.17-45.13L329.17-45.13Q328.16-44.81 327.41-44.39L327.41-44.39L327.41-44.39Q326.66-43.97 326.17-43.58L326.17-43.58L326.17-43.58Q325.69-43.19 325.47-43L325.47-43L324.66-44.09L324.66-44.09Q325.41-45.06 326.48-45.91L326.48-45.91L326.48-45.91Q327.56-46.75 328.84-47.34L328.84-47.34L328.84-47.34Q330.13-47.94 331.55-48.28L331.55-48.28L331.55-48.28Q332.97-48.63 334.38-48.63L334.38-48.63L334.38-48.63Q339-48.63 342.50-46.61L342.50-46.61L342.50-46.61Q346-44.59 348.34-40.91L348.34-40.91L348.34-40.91Q350.69-37.22 351.88-32L351.88-32L351.88-32Q353.06-26.78 353.06-20.41L353.06-20.41L353.06-20.41Q353.06-15.25 352.02-11.34L352.02-11.34L352.02-11.34Q350.97-7.44 349.03-4.80L349.03-4.80L349.03-4.80Q347.09-2.16 344.33-0.83L344.33-0.83L344.33-0.83Q341.56 0.50 338.09 0.50L338.09 0.50L338.09 0.50Q335.69 0.50 333.20-0.36L333.20-0.36L333.20-0.36Q330.72-1.22 328.70-3.16L328.70-3.16L328.70-3.16Q326.69-5.09 325.41-8.23L325.41-8.23L325.41-8.23Q324.13-11.38 324.13-15.94L324.13-15.94L324.13-15.94Q324.13-19.88 325.23-22.94L325.23-22.94L325.23-22.94Q326.34-26 328.22-28.11L328.22-28.11L328.22-28.11Q330.09-30.22 332.56-31.33L332.56-31.33L332.56-31.33Q335.03-32.44 337.78-32.44L337.78-32.44L337.78-32.44Q338.84-32.44 339.69-32.27L339.69-32.27L339.69-32.27Q340.53-32.09 341.16-31.84L341.16-31.84L341.16-31.84Q341.78-31.59 342.25-31.30L342.25-31.30L342.25-31.30Q342.72-31 343.09-30.72ZM357.63-7.81L370.28-27.19L370.28-27.19Q370.59-27.59 370.83-28.06L370.83-28.06L370.83-28.06Q371.06-28.53 371.06-28.94L371.06-28.94L371.06-28.94Q371.06-29.53 370.13-29.78L370.13-29.78L370.13-29.78Q369.19-30.03 366.66-30.03L366.66-30.03L366.66-30.03Q365.09-30.03 364.06-29.66L364.06-29.66L364.06-29.66Q363.03-29.28 362.36-28.73L362.36-28.73L362.36-28.73Q361.69-28.19 361.27-27.53L361.27-27.53L361.27-27.53Q360.84-26.88 360.53-26.33L360.53-26.33L360.53-26.33Q360.22-25.78 359.92-25.41L359.92-25.41L359.92-25.41Q359.63-25.03 359.16-25.03L359.16-25.03L359.16-25.03Q358.63-25.03 358.23-25.38L358.23-25.38L358.23-25.38Q357.84-25.72 357.59-26.23L357.59-26.23L357.59-26.23Q357.34-26.75 357.22-27.36L357.22-27.36L357.22-27.36Q357.09-27.97 357.09-28.53L357.09-28.53L357.09-28.53Q357.09-29.38 357.81-30.09L357.81-30.09L357.81-30.09Q358.53-30.81 359.91-31.33L359.91-31.33L359.91-31.33Q361.28-31.84 363.27-32.14L363.27-32.14L363.27-32.14Q365.25-32.44 367.81-32.44L367.81-32.44L367.81-32.44Q371.97-32.44 374.58-32.09L374.58-32.09L374.58-32.09Q377.19-31.75 378.66-31.17L378.66-31.17L378.66-31.17Q380.13-30.59 380.66-29.78L380.66-29.78L380.66-29.78Q381.19-28.97 381.19-28.03L381.19-28.03L381.19-28.03Q381.19-27.53 380.95-26.92L380.95-26.92L380.95-26.92Q380.72-26.31 380.39-25.75L380.39-25.75L380.39-25.75Q380.06-25.19 379.73-24.70L379.73-24.70L379.73-24.70Q379.41-24.22 379.25-24L379.25-24L366.25-4.09L366.25-4.09Q366.16-3.94 365.95-3.61L365.95-3.61L365.95-3.61Q365.75-3.28 365.75-2.88L365.75-2.88L365.75-2.88Q365.75-2.63 365.92-2.44L365.92-2.44L365.92-2.44Q366.09-2.25 366.58-2.13L366.58-2.13L366.58-2.13Q367.06-2 367.97-1.95L367.97-1.95L367.97-1.95Q368.88-1.91 370.34-1.91L370.34-1.91L370.34-1.91Q372.22-1.91 373.45-2.31L373.45-2.31L373.45-2.31Q374.69-2.72 375.47-3.34L375.47-3.34L375.47-3.34Q376.25-3.97 376.72-4.67L376.72-4.67L376.72-4.67Q377.19-5.38 377.53-6L377.53-6L377.53-6Q377.88-6.63 378.20-7.03L378.20-7.03L378.20-7.03Q378.53-7.44 379.06-7.44L379.06-7.44L379.06-7.44Q379.59-7.44 380-7.05L380-7.05L380-7.05Q380.41-6.66 380.69-6.06L380.69-6.06L380.69-6.06Q380.97-5.47 381.11-4.78L381.11-4.78L381.11-4.78Q381.25-4.09 381.25-3.53L381.25-3.53L381.25-3.53Q381.25-2.69 380.50-1.95L380.50-1.95L380.50-1.95Q379.75-1.22 378.22-0.67L378.22-0.67L378.22-0.67Q376.69-0.13 374.33 0.19L374.33 0.19L374.33 0.19Q371.97 0.50 368.75 0.50L368.75 0.50L368.75 0.50Q365.28 0.50 362.84 0.22L362.84 0.22L362.84 0.22Q360.41-0.06 358.88-0.61L358.88-0.61L358.88-0.61Q357.34-1.16 356.66-2L356.66-2L356.66-2Q355.97-2.84 355.97-3.97L355.97-3.97L355.97-3.97Q355.97-4.88 356.39-5.77L356.39-5.77L356.39-5.77Q356.81-6.66 357.63-7.81L357.63-7.81ZM406.75-21.63L394.41-14.34L394.41-14.34Q394.41-13.34 394.70-12.17L394.70-12.17L394.70-12.17Q395-11 395.56-9.81L395.56-9.81L395.56-9.81Q396.13-8.63 396.95-7.55L396.95-7.55L396.95-7.55Q397.78-6.47 398.86-5.63L398.86-5.63L398.86-5.63Q399.94-4.78 401.25-4.28L401.25-4.28L401.25-4.28Q402.56-3.78 404.13-3.78L404.13-3.78L404.13-3.78Q405.22-3.78 406.16-4.03L406.16-4.03L406.16-4.03Q407.09-4.28 407.91-4.72L407.91-4.72L407.91-4.72Q408.72-5.16 409.47-5.73L409.47-5.73L409.47-5.73Q410.22-6.31 410.97-6.97L410.97-6.97L411.75-6.22L411.75-6.22Q411.03-5.25 409.91-4.09L409.91-4.09L409.91-4.09Q408.78-2.94 407.19-1.92L407.19-1.92L407.19-1.92Q405.59-0.91 403.47-0.23L403.47-0.23L403.47-0.23Q401.34 0.44 398.63 0.44L398.63 0.44L398.63 0.44Q395.91 0.44 393.33-0.55L393.33-0.55L393.33-0.55Q390.75-1.53 388.75-3.50L388.75-3.50L388.75-3.50Q386.75-5.47 385.55-8.41L385.55-8.41L385.55-8.41Q384.34-11.34 384.34-15.28L384.34-15.28L384.34-15.28Q384.34-18.13 385.06-20.50L385.06-20.50L385.06-20.50Q385.78-22.88 387.02-24.78L387.02-24.78L387.02-24.78Q388.25-26.69 389.89-28.13L389.89-28.13L389.89-28.13Q391.53-29.56 393.34-30.52L393.34-30.52L393.34-30.52Q395.16-31.47 397.05-31.95L397.05-31.95L397.05-31.95Q398.94-32.44 400.69-32.44L400.69-32.44L400.69-32.44Q403-32.44 404.72-31.94L404.72-31.94L404.72-31.94Q406.44-31.44 407.58-30.59L407.58-30.59L407.58-30.59Q408.72-29.75 409.28-28.64L409.28-28.64L409.28-28.64Q409.84-27.53 409.84-26.31L409.84-26.31L409.84-26.31Q409.84-24.84 409-23.67L409-23.67L409-23.67Q408.16-22.50 406.75-21.63L406.75-21.63ZM394.09-16.91L400.69-20.69L400.69-20.69Q401.09-20.94 401.36-21.17L401.36-21.17L401.36-21.17Q401.63-21.41 401.78-21.73L401.78-21.73L401.78-21.73Q401.94-22.06 402.02-22.55L402.02-22.55L402.02-22.55Q402.09-23.03 402.09-23.75L402.09-23.75L402.09-23.75Q402.09-24.53 401.92-25.48L401.92-25.48L401.92-25.48Q401.75-26.44 401.34-27.28L401.34-27.28L401.34-27.28Q400.94-28.13 400.31-28.69L400.31-28.69L400.31-28.69Q399.69-29.25 398.81-29.25L398.81-29.25L398.81-29.25Q397.69-29.25 396.89-28.58L396.89-28.58L396.89-28.58Q396.09-27.91 395.58-26.84L395.58-26.84L395.58-26.84Q395.06-25.78 394.77-24.42L394.77-24.42L394.77-24.42Q394.47-23.06 394.31-21.69L394.31-21.69L394.31-21.69Q394.16-20.31 394.13-19.05L394.13-19.05L394.13-19.05Q394.09-17.78 394.09-16.91L394.09-16.91Z"
        fill="#ccc"></path>
    </g>
  </g>
</svg>
